<svg width="24" height="24" viewBox="0 0 24 24" fill="none" xmlns="http://www.w3.org/2000/svg">
<g id="icon/attention" clip-path="url(#clip0_54_76)">
<g id="Group">
<g id="Layer 2">
<path id="Vector" d="M12 24C18.6274 24 24 18.6274 24 12C24 5.37258 18.6274 0 12 0C5.37258 0 0 5.37258 0 12C0 18.6274 5.37258 24 12 24Z" fill="#EB5757"/>
<g id="Group_2">
<path id="Vector_2" d="M12 14.4C11.5655 14.4 11.1478 14.2318 10.8344 13.9307C10.5211 13.6296 10.3364 13.2189 10.3191 12.7847L10.0974 7.18594C10.0885 6.95963 10.1254 6.73385 10.2058 6.52215C10.2863 6.31044 10.4087 6.11716 10.5656 5.95389C10.7226 5.79062 10.9109 5.66072 11.1193 5.57199C11.3277 5.48326 11.5518 5.43751 11.7783 5.4375H12.2217C12.4482 5.43751 12.6724 5.48326 12.8808 5.57199C13.0891 5.66072 13.2774 5.79062 13.4344 5.95389C13.5914 6.11716 13.7138 6.31044 13.7942 6.52215C13.8747 6.73385 13.9116 6.95963 13.9027 7.18594L13.681 12.7847C13.6636 13.2189 13.479 13.6296 13.1656 13.9307C12.8523 14.2318 12.4346 14.4 12 14.4Z" fill="white"/>
<path id="Vector_3" d="M13.6795 16.883C13.6795 15.9554 12.9275 15.2035 12 15.2035C11.0724 15.2035 10.3204 15.9554 10.3204 16.883C10.3204 17.8106 11.0724 18.5626 12 18.5626C12.9275 18.5626 13.6795 17.8106 13.6795 16.883Z" fill="white"/>
</g>
</g>
</g>
</g>
<defs>
<clipPath id="clip0_54_76">
<rect width="24" height="24" fill="white"/>
</clipPath>
</defs>
</svg>
